<?xml version="1.0" encoding="UTF-8" standalone="no"?>
<!-- Created with Inkscape (http://www.inkscape.org/) -->

<svg
   xmlns:dc="http://purl.org/dc/elements/1.1/"
   xmlns:cc="http://creativecommons.org/ns#"
   xmlns:rdf="http://www.w3.org/1999/02/22-rdf-syntax-ns#"
   xmlns:svg="http://www.w3.org/2000/svg"
   xmlns="http://www.w3.org/2000/svg"
   xmlns:sodipodi="http://sodipodi.sourceforge.net/DTD/sodipodi-0.dtd"
   xmlns:inkscape="http://www.inkscape.org/namespaces/inkscape"
   width="20.108339mm"
   height="20.108339mm"
   viewBox="0 0 20.108339 20.108339"
   version="1.1"
   id="svg8"
   inkscape:version="0.92.3 (2405546, 2018-03-11)"
   sodipodi:docname="ball.svg">
  <defs
     id="defs2" />
  <sodipodi:namedview
     id="base"
     pagecolor="#ffffff"
     bordercolor="#666666"
     borderopacity="1.0"
     inkscape:pageopacity="0.0"
     inkscape:pageshadow="2"
     inkscape:zoom="0.35"
     inkscape:cx="285.14285"
     inkscape:cy="-346.28569"
     inkscape:document-units="mm"
     inkscape:current-layer="layer1"
     showgrid="false"
     inkscape:window-width="1768"
     inkscape:window-height="929"
     inkscape:window-x="-8"
     inkscape:window-y="-8"
     inkscape:window-maximized="1" />
  <metadata
     id="metadata5">
    <rdf:RDF>
      <cc:Work
         rdf:about="">
        <dc:format>image/svg+xml</dc:format>
        <dc:type
           rdf:resource="http://purl.org/dc/dcmitype/StillImage" />
        <dc:title />
      </cc:Work>
    </rdf:RDF>
  </metadata>
  <g
     inkscape:label="Calque 1"
     inkscape:groupmode="layer"
     id="layer1"
     transform="translate(-30.389288,-37.103572)">
    <path
       id="path3713"
       d="m 40.443458,37.103572 c -5.554118,0 -10.05417,4.50005 -10.05417,10.05417 0,5.55412 4.500052,10.05417 10.05417,10.05417 5.554117,0 10.054169,-4.50005 10.054169,-10.05417 0,-5.55412 -4.500052,-10.05417 -10.054169,-10.05417 z m -5.189249,7.45955 c -0.717576,0 -1.297312,-0.57974 -1.297312,-1.29732 0,-0.71757 0.579736,-1.29731 1.297312,-1.29731 0.717576,0 1.297313,0.57974 1.297313,1.29731 0,0.71758 -0.579737,1.29732 -1.297313,1.29732 z m 2.594624,-3.89194 c 0,-0.71758 0.579737,-1.29731 1.297313,-1.29731 0.717576,0 1.297312,0.57973 1.297312,1.29731 0,0.71757 -0.579736,1.29731 -1.297312,1.29731 -0.717576,0 -1.297313,-0.57974 -1.297313,-1.29731 z m 1.945968,5.8379 c -0.717575,0 -1.297311,-0.57973 -1.297311,-1.29731 0,-0.71758 0.579736,-1.29731 1.297311,-1.29731 0.717577,0 1.297313,0.57973 1.297313,1.29731 0,0.71758 -0.579736,1.29731 -1.297313,1.29731 z"
       inkscape:connector-curvature="0"
       style="stroke-width:0.040541" />
  </g>
</svg>
