<?xml version="1.0" encoding="iso-8859-1"?>
<!-- Generator: Adobe Illustrator 19.0.0, SVG Export Plug-In . SVG Version: 6.00 Build 0)  -->
<svg version="1.1" id="Layer_1" xmlns="http://www.w3.org/2000/svg" xmlns:xlink="http://www.w3.org/1999/xlink" x="0px" y="0px"
	 viewBox="0 0 512.002 512.002" style="enable-background:new 0 0 512.002 512.002;" xml:space="preserve">
<g>
	<g>
		<path d="M507.454,138.305c-6.676-16.745-20.187-29.955-37.067-36.243c-138.25-51.473-290.519-51.474-428.757,0
			c-16.889,6.287-30.404,19.499-37.081,36.248c-6.688,16.775-5.965,35.697,1.932,51.802c0.159,0.334,0.32,0.667,0.492,1.002
			c7.049,14.291,21.465,22.697,36.527,22.696c3.081,0,6.189-0.363,9.269-1.089L246.545,417.89v21.194
			c0,5.226,4.235,9.462,9.462,9.462c5.227,0,9.462-4.236,9.462-9.462V417.89l193.777-205.168
			c18.153,4.279,37.385-4.438,45.897-21.814c0.076-0.159,0.15-0.319,0.233-0.479c0.037-0.069,0.072-0.139,0.106-0.209
			C513.426,174.003,514.144,155.081,507.454,138.305z M71.966,205.488c16.355-6.37,33.099-11.918,50.011-16.553l90.45,165.27
			L71.966,205.488z M256.009,394.421L140.922,184.136c75.551-17.597,154.615-17.597,230.171,0L256.009,394.421z M299.589,354.205
			l90.45-165.27c16.91,4.635,33.654,10.184,50.01,16.553L299.589,354.205z M488.528,181.813c-0.168,0.327-0.322,0.643-0.431,0.877
			c-5.072,10.351-17.36,14.963-27.973,10.494c-23.443-9.877-47.818-18.111-72.446-24.475c-86.141-22.277-177.203-22.277-263.338,0
			c-24.629,6.363-49.005,14.599-72.446,24.474c-10.62,4.47-22.903-0.14-27.976-10.493c-0.034-0.071-0.071-0.14-0.106-0.209
			c-0.082-0.159-0.158-0.319-0.286-0.588c-5.599-11.424-6.11-24.755-1.398-36.574c4.77-11.968,14.042-21.031,26.104-25.521
			c18.968-7.062,38.209-13.124,57.644-18.187l9.679,44.571c0.963,4.429,4.881,7.456,9.237,7.456c0.664,0,1.341-0.071,2.017-0.217
			c5.107-1.109,8.347-6.148,7.238-11.255l-9.777-45.034c87.207-19.778,177.818-19.658,264.991,0.352l-9.703,44.682
			c-1.109,5.107,2.131,10.146,7.238,11.255c0.676,0.148,1.351,0.217,2.017,0.217c4.356,0,8.276-3.025,9.237-7.456l9.592-44.172
			c18.924,4.982,37.662,10.908,56.141,17.789c12.056,4.49,21.321,13.552,26.094,25.517
			C494.579,157.107,494.086,170.405,488.528,181.813z"/>
	</g>
</g>
<g>
	<g>
		<path d="M256.009,94.226c-5.227,0-9.462,4.236-9.462,9.462v22.797c0,5.226,4.235,9.462,9.462,9.462
			c5.227,0,9.462-4.236,9.462-9.462v-22.797C265.471,98.463,261.234,94.226,256.009,94.226z"/>
	</g>
</g>
<g>
</g>
<g>
</g>
<g>
</g>
<g>
</g>
<g>
</g>
<g>
</g>
<g>
</g>
<g>
</g>
<g>
</g>
<g>
</g>
<g>
</g>
<g>
</g>
<g>
</g>
<g>
</g>
<g>
</g>
</svg>
