<?xml version="1.0" encoding="UTF-8" standalone="no"?>
<!-- Created with Inkscape (http://www.inkscape.org/) -->

<svg
   xmlns:dc="http://purl.org/dc/elements/1.1/"
   xmlns:cc="http://creativecommons.org/ns#"
   xmlns:rdf="http://www.w3.org/1999/02/22-rdf-syntax-ns#"
   xmlns:svg="http://www.w3.org/2000/svg"
   xmlns="http://www.w3.org/2000/svg"
   xmlns:sodipodi="http://sodipodi.sourceforge.net/DTD/sodipodi-0.dtd"
   xmlns:inkscape="http://www.inkscape.org/namespaces/inkscape"
   width="88.198952mm"
   height="64.411957mm"
   viewBox="0 0 88.19895 64.411957"
   version="1.1"
   id="svg8"
   inkscape:version="0.92.3 (2405546, 2018-03-11)"
   sodipodi:docname="water.svg">
  <defs
     id="defs2" />
  <sodipodi:namedview
     id="base"
     pagecolor="#ffffff"
     bordercolor="#666666"
     borderopacity="1.0"
     inkscape:pageopacity="0.0"
     inkscape:pageshadow="2"
     inkscape:zoom="1.979899"
     inkscape:cx="245.79679"
     inkscape:cy="138.61615"
     inkscape:document-units="mm"
     inkscape:current-layer="layer1"
     showgrid="false"
     inkscape:window-width="1768"
     inkscape:window-height="929"
     inkscape:window-x="-8"
     inkscape:window-y="-8"
     inkscape:window-maximized="1" />
  <metadata
     id="metadata5">
    <rdf:RDF>
      <cc:Work
         rdf:about="">
        <dc:format>image/svg+xml</dc:format>
        <dc:type
           rdf:resource="http://purl.org/dc/dcmitype/StillImage" />
        <dc:title />
      </cc:Work>
    </rdf:RDF>
  </metadata>
  <g
     inkscape:label="Calque 1"
     inkscape:groupmode="layer"
     id="layer1"
     style="opacity:0.5"
     transform="translate(-31.270535,-69.553635)">
    <rect
       id="rect10"
       width="88.198952"
       height="64.411957"
       x="31.270535"
       y="69.553635"
       style="fill:#00ffff;stroke-width:0.20838363" />
  </g>
  <g
     inkscape:groupmode="layer"
     id="layer2"
     inkscape:label="Calque 2"
     style="display:inline;opacity:0.75"
     transform="translate(-31.270535,-69.553635)">
    <path
       style="fill:#000080;stroke:#000080;stroke-width:0.26458332"
       id="path4553"
       d="m 37.261784,75.481674 c 0.164451,0.563044 0.420333,1.092734 0.737931,1.584169 0.312689,0.464711 0.756769,0.806209 1.225724,1.099743 0.356518,0.238845 0.732737,0.4313 1.131911,0.585549 0.53018,0.2192 1.066208,0.421733 1.609305,0.607119 0.857189,0.268425 1.753303,0.291787 2.641594,0.234095 1.156894,-0.09787 2.271409,-0.417589 3.350035,-0.832146 0.348449,-0.161719 0.464273,-0.209373 0.79751,-0.387057 0.121484,-0.06478 0.480386,-0.269253 0.360516,-0.201535 -0.429919,0.242874 -0.851596,0.501102 -1.290669,0.727008 -0.125384,0.06451 0.233884,-0.15772 0.347223,-0.241601 0.124794,-0.09236 0.244597,-0.191273 0.366895,-0.286909 0.655754,-0.538369 1.265748,-1.128422 1.824101,-1.766729 0.333634,-0.399963 0.643387,-0.819682 0.952601,-1.238705 0.504084,-0.686461 0.827722,-0.744897 1.967582,-1.268272 0.07519,-0.03453 0.236884,0.430853 0.252656,0.471657 0.176011,0.521022 0.388805,1.024543 0.63097,1.518131 0.313825,0.687843 0.72843,1.314662 1.189659,1.910263 0.303639,0.403534 0.676442,0.743373 1.068999,1.057375 0.375325,0.259422 0.80718,0.39492 1.238379,0.526397 0.748213,0.241525 1.527818,0.361122 2.305291,0.461684 1.609413,0.216162 3.224258,0.09186 4.830882,-0.07126 1.457023,-0.188475 2.900151,-0.470312 4.327194,-0.817131 0.378497,-0.117215 0.755258,-0.244843 1.118118,-0.405021 0.609754,-0.269166 1.904252,-1.034931 -0.695883,0.446894 0.549762,-0.33691 1.093311,-0.684265 1.629146,-1.043008 0.357642,-0.238882 0.686821,-0.512297 1.009941,-0.794806 0.295907,-0.277458 0.576651,-0.570479 0.858382,-0.862158 0.580652,-0.573929 1.104022,-0.743217 2.001292,-1.230268 0.03038,-0.01648 0.07058,-0.0038 0.103479,0.0068 0.08077,0.02606 0.140716,0.102986 0.196339,0.158969 0.350727,0.482312 0.710102,0.953352 1.112203,1.394434 0.562396,0.573757 1.161058,1.108678 1.818375,1.57086 0.500026,0.355256 1.049827,0.633206 1.60341,0.894064 0.656992,0.328938 1.348068,0.554781 2.061326,0.723228 0.872244,0.182864 1.762535,0.183621 2.64863,0.16042 1.212249,-0.01693 2.353228,-0.403217 3.473058,-0.827985 1.127853,-0.467196 2.215002,-1.029668 3.276701,-1.630804 1.095108,-0.63482 -0.328062,0.191336 -0.905642,0.513622 -0.103963,0.05801 0.203432,-0.123743 0.304421,-0.186788 0.248542,-0.155157 0.493821,-0.31556 0.738349,-0.476924 0.364379,-0.235442 0.726824,-0.475549 1.074277,-0.735526 0.245478,-0.189728 0.479616,-0.393234 0.72014,-0.589031 0.612291,-0.522283 0.276776,-0.246415 1.883646,-1.132137 0.161597,-0.08907 0.349411,0.328044 0.390808,0.406567 0.299657,0.555667 0.600173,1.110422 0.923679,1.652617 0.432546,0.65356 0.905489,1.275762 1.434153,1.854239 0.294214,0.32761 0.647004,0.571871 1.008726,0.814531 0.349152,0.216162 0.723104,0.376097 1.108503,0.518112 0.62783,0.262289 1.28845,0.383717 1.96088,0.45793 0.82699,0.113776 1.61117,0.01357 2.41607,-0.177781 1.24042,-0.400161 2.45987,-0.862317 3.67272,-1.338683 1.23268,-0.453501 2.45785,-0.930146 3.63313,-1.51842 0.50812,-0.244806 0.28294,-0.125431 0.74149,-0.385681 0.0958,-0.05439 0.38298,-0.218228 0.28725,-0.163647 -2.57176,1.466233 -1.53558,0.898572 -0.97,0.501126 0.35634,-0.265483 0.72619,-0.511776 1.09144,-0.764551 0.17538,-0.13295 0.34235,-0.276656 0.5102,-0.418914 0,0 1.8304,-0.742667 1.8304,-0.742667 v 0 c -0.16857,0.148616 -0.34559,0.286832 -0.51035,0.439647 -0.36325,0.262364 -0.74566,0.496951 -1.10204,0.768969 -1.06186,0.751965 -2.20304,1.390074 -3.37244,1.958597 -1.17295,0.559181 -2.38597,1.023575 -3.60359,1.47561 -1.23404,0.483765 -2.47147,0.968415 -3.74015,1.354188 -0.81451,0.172429 -1.63223,0.251987 -2.46221,0.130961 -0.687051,-0.08452 -1.3604,-0.226023 -2.005467,-0.484143 -0.399027,-0.150894 -0.790401,-0.312859 -1.149337,-0.546756 -0.370888,-0.251327 -0.706223,-0.536749 -1.00434,-0.873813 -0.526677,-0.595397 -1.001503,-1.230939 -1.447676,-1.888685 -0.330671,-0.54028 -0.636063,-1.094859 -0.959866,-1.639226 -0.01638,-0.02725 -0.08726,-0.171633 -0.143668,-0.196988 -0.0073,-0.0033 -0.09599,0.064 -0.08172,0.0557 1.580475,-0.920734 2.101342,-1.312347 1.49224,-0.861256 -0.22813,0.212966 -0.481759,0.400796 -0.723623,0.598577 -0.332028,0.288346 -0.717888,0.51502 -1.082929,0.758357 -1.111572,0.747485 -2.280086,1.403956 -3.445404,2.063562 -1.062357,0.583854 -2.143059,1.140063 -3.270237,1.589283 -1.140608,0.422863 -2.30488,0.7859 -3.534759,0.795161 -0.903123,0.02045 -1.811549,0.01352 -2.697466,-0.188146 C 79.630237,80.929619 78.929761,80.691203 78.25909,80.363686 77.697636,80.096523 77.140646,79.809908 76.640422,79.437602 75.98412,78.955767 75.390543,78.3998 74.815675,77.82407 c -0.400071,-0.432732 -0.771382,-0.887188 -1.148659,-1.338855 -0.06814,-0.03499 -0.04697,-0.04505 -0.102608,-0.0159 -0.02178,0.0114 -0.0852,0.04921 -0.06398,0.03676 2.964301,-1.739005 1.87952,-1.210331 1.371872,-0.76395 -0.300379,0.277188 -0.570016,0.587055 -0.861385,0.873684 -0.325348,0.292862 -0.652508,0.578284 -1.014939,0.825711 -0.541687,0.360434 -1.08625,0.71536 -1.639089,1.058217 -1.223981,0.706118 -2.369164,1.480619 -3.750323,1.813356 -1.413285,0.314704 -2.839765,0.5714 -4.277087,0.749155 -1.633861,0.160671 -3.274862,0.283244 -4.912096,0.07863 -0.799375,-0.09548 -1.599377,-0.211682 -2.368679,-0.457986 -0.453782,-0.137858 -0.902613,-0.2976 -1.286674,-0.585073 -0.399542,-0.327604 -0.767797,-0.689358 -1.07169,-1.10975 -0.462526,-0.609896 -0.8758,-1.251331 -1.210926,-1.941345 -0.247801,-0.494557 -0.475761,-0.995974 -0.664919,-1.515899 -0.03494,-0.08218 -0.06187,-0.168616 -0.107405,-0.245433 -0.0067,-0.0113 -0.0011,0.04448 0.01035,0.03801 0.547566,-0.310404 1.078468,-0.649457 1.623541,-0.964213 0.09069,-0.05237 -0.397375,0.290819 -0.220093,0.224178 -0.306996,0.432946 -0.642557,0.847405 -0.970315,1.264508 -0.556781,0.654074 -1.175787,1.25013 -1.829649,1.806932 -1.158311,0.957821 -2.496362,1.683827 -3.869777,2.285135 -1.087403,0.396131 -2.212991,0.685379 -3.37062,0.776102 -0.917101,0.04808 -1.842677,0.02437 -2.723414,-0.267131 C 39.808743,80.263149 39.267139,80.059446 38.730037,79.84357 38.32083,79.68323 37.938994,79.474976 37.576806,79.224963 37.094899,78.906387 36.643027,78.532147 36.3199,78.046896 35.994886,77.543314 35.740248,77.0049 35.531457,76.443021 c 0,0 1.730346,-0.961343 1.730346,-0.961343 z"
       inkscape:connector-curvature="0" />
    <path
       style="display:inline;fill:#000080;stroke:#000080;stroke-width:0.26458332"
       id="path4553-7"
       d="m 37.171865,89.710982 c 0.164451,0.563044 0.420333,1.092734 0.737931,1.584169 0.312689,0.464711 0.756769,0.806209 1.225724,1.099743 0.356518,0.238846 0.732737,0.431301 1.131911,0.585549 0.53018,0.2192 1.066208,0.421733 1.609305,0.607119 0.857189,0.268426 1.753303,0.291787 2.641594,0.234095 1.156895,-0.09787 2.27141,-0.417589 3.350036,-0.832145 0.348449,-0.16172 0.464273,-0.209373 0.79751,-0.387058 0.121484,-0.06478 0.480386,-0.269253 0.360516,-0.201535 -0.429919,0.242874 -0.851596,0.501102 -1.290669,0.727009 -0.125384,0.06451 0.233884,-0.15772 0.347223,-0.241602 0.124794,-0.09236 0.244597,-0.191272 0.366895,-0.286908 0.655754,-0.53837 1.265748,-1.128422 1.824101,-1.76673 0.333634,-0.399963 0.643387,-0.819682 0.952601,-1.238705 0.504084,-0.686461 0.827722,-0.744897 1.967582,-1.268272 0.07519,-0.03453 0.236884,0.430853 0.252656,0.471657 0.176011,0.521022 0.388805,1.024543 0.63097,1.518131 0.313825,0.687843 0.72843,1.314662 1.189659,1.910263 0.303639,0.403534 0.676442,0.743373 1.068999,1.057375 0.375325,0.259422 0.80718,0.39492 1.238379,0.526397 0.748213,0.241526 1.527818,0.361123 2.305291,0.461685 1.609413,0.216161 3.224258,0.09186 4.830882,-0.07126 1.457023,-0.188476 2.90015,-0.470313 4.327194,-0.817132 0.378497,-0.117215 0.755258,-0.244842 1.118118,-0.405021 0.609754,-0.269166 1.904252,-1.034931 -0.695883,0.446895 0.549762,-0.336911 1.093311,-0.684266 1.629146,-1.043009 0.357642,-0.238882 0.686821,-0.512297 1.009941,-0.794806 0.295907,-0.277457 0.576651,-0.570478 0.858382,-0.862158 0.580652,-0.573929 1.104022,-0.743217 2.001293,-1.230268 0.03038,-0.01648 0.07058,-0.0038 0.103478,0.0068 0.08077,0.02606 0.140716,0.102986 0.196339,0.158969 0.350727,0.482312 0.710102,0.953352 1.112203,1.394434 0.562396,0.573758 1.161058,1.108678 1.818375,1.57086 0.500026,0.355256 1.049827,0.633207 1.60341,0.894065 0.656992,0.328938 1.348068,0.554781 2.061326,0.723228 0.872244,0.182863 1.762535,0.18362 2.64863,0.16042 1.21225,-0.01693 2.353228,-0.403217 3.473059,-0.827986 1.127852,-0.467196 2.215001,-1.029667 3.2767,-1.630803 1.095108,-0.634821 -0.328062,0.191335 -0.905642,0.513621 -0.103963,0.05801 0.203433,-0.123743 0.304421,-0.186788 0.248542,-0.155156 0.493821,-0.31556 0.738349,-0.476924 0.364379,-0.235442 0.726824,-0.475549 1.074277,-0.735525 0.245478,-0.189729 0.479616,-0.393235 0.720141,-0.589032 0.612291,-0.522283 0.276775,-0.246415 1.883645,-1.132137 0.161597,-0.08907 0.349412,0.328044 0.390808,0.406567 0.299657,0.555667 0.600173,1.110422 0.923679,1.652617 0.432546,0.65356 0.905489,1.275762 1.434153,1.854239 0.294214,0.32761 0.647004,0.571871 1.008727,0.814531 0.349152,0.216162 0.723103,0.376097 1.108503,0.518113 0.627827,0.262288 1.288447,0.383717 1.960877,0.457929 0.82699,0.113776 1.61117,0.01357 2.41607,-0.17778 1.24042,-0.400162 2.45987,-0.862317 3.67272,-1.338684 1.23268,-0.453501 2.45785,-0.930146 3.63313,-1.51842 0.50812,-0.244806 0.28294,-0.125431 0.74149,-0.385681 0.0958,-0.05439 0.38298,-0.218228 0.28725,-0.163646 -2.57176,1.466232 -1.53558,0.898571 -0.97,0.501125 0.35634,-0.265483 0.72619,-0.511776 1.09144,-0.76455 0.17538,-0.132951 0.34235,-0.276656 0.5102,-0.418915 0,0 1.8304,-0.742667 1.8304,-0.742667 v 0 c -0.16857,0.148616 -0.34559,0.286832 -0.51035,0.439647 -0.36325,0.262364 -0.74566,0.496951 -1.10204,0.768969 -1.06186,0.751965 -2.20304,1.390074 -3.37244,1.958597 -1.17295,0.559181 -2.38597,1.023575 -3.60359,1.47561 -1.23404,0.483765 -2.47147,0.968415 -3.74015,1.354189 -0.81451,0.172428 -1.63223,0.251987 -2.46221,0.130961 -0.687049,-0.08452 -1.360398,-0.226024 -2.005465,-0.484143 -0.399026,-0.150894 -0.7904,-0.31286 -1.149337,-0.546757 -0.370888,-0.251327 -0.706223,-0.536748 -1.00434,-0.873813 -0.526677,-0.595396 -1.001503,-1.230939 -1.447675,-1.888685 -0.330671,-0.540279 -0.636064,-1.094859 -0.959866,-1.639226 -0.01638,-0.02725 -0.08726,-0.171633 -0.143669,-0.196988 -0.0073,-0.0033 -0.09599,0.064 -0.08172,0.0557 1.580475,-0.920734 2.101342,-1.312347 1.492239,-0.861256 -0.228129,0.212966 -0.481759,0.400796 -0.723622,0.598577 -0.332028,0.288346 -0.717889,0.51502 -1.082929,0.758357 -1.111573,0.747485 -2.280087,1.403956 -3.445404,2.063562 -1.062358,0.583855 -2.143059,1.140064 -3.270237,1.589283 -1.140608,0.422864 -2.304881,0.7859 -3.534759,0.795161 -0.903124,0.02045 -1.811549,0.01352 -2.697467,-0.188146 -0.72196,-0.183112 -1.422436,-0.421528 -2.093107,-0.749045 -0.561454,-0.267163 -1.118444,-0.553777 -1.618668,-0.926084 -0.656302,-0.481835 -1.249879,-1.037801 -1.824747,-1.613532 -0.400071,-0.432731 -0.771382,-0.887187 -1.148659,-1.338855 -0.06814,-0.03499 -0.04697,-0.04505 -0.102608,-0.0159 -0.02178,0.0114 -0.0852,0.04921 -0.06398,0.03676 2.964299,-1.739005 1.879518,-1.210331 1.37187,-0.76395 -0.300379,0.277188 -0.570016,0.587055 -0.861383,0.873684 -0.32535,0.292862 -0.65251,0.578285 -1.014939,0.825712 -0.541687,0.360433 -1.086252,0.71536 -1.639091,1.058216 -1.223981,0.706119 -2.369164,1.48062 -3.750323,1.813356 -1.413283,0.314705 -2.839765,0.5714 -4.277085,0.749155 -1.633862,0.160672 -3.274863,0.283245 -4.912097,0.07863 -0.799374,-0.09548 -1.599376,-0.211681 -2.368678,-0.457985 -0.453782,-0.137858 -0.902613,-0.2976 -1.286674,-0.585073 -0.399542,-0.327604 -0.767797,-0.689358 -1.07169,-1.10975 -0.462526,-0.609896 -0.8758,-1.251332 -1.210926,-1.941345 -0.247801,-0.494558 -0.475761,-0.995975 -0.664919,-1.5159 -0.03494,-0.08218 -0.06187,-0.168616 -0.107405,-0.245433 -0.0067,-0.0113 -0.0011,0.04448 0.01035,0.03801 0.547566,-0.310404 1.078468,-0.649457 1.623541,-0.964213 0.09069,-0.05237 -0.397375,0.290819 -0.220093,0.224178 -0.306996,0.432946 -0.642557,0.847405 -0.970315,1.264508 -0.556781,0.654074 -1.175787,1.25013 -1.829649,1.806932 -1.158311,0.957821 -2.496362,1.683828 -3.869777,2.285136 -1.087403,0.396131 -2.212991,0.685379 -3.370621,0.776102 -0.9171,0.04808 -1.842676,0.02437 -2.723413,-0.267131 -0.548368,-0.185764 -1.089972,-0.389468 -1.627074,-0.605344 -0.409208,-0.160339 -0.791044,-0.368594 -1.153232,-0.618607 -0.481907,-0.318576 -0.933779,-0.692815 -1.256906,-1.178067 -0.325014,-0.503582 -0.579652,-1.041995 -0.788443,-1.603875 0,0 1.730346,-0.961343 1.730346,-0.961343 z"
       inkscape:connector-curvature="0" />
    <path
       style="display:inline;fill:#000080;stroke:#000080;stroke-width:0.26458332"
       id="path4553-8"
       d="m 37.840039,104.81171 c 0.164451,0.56304 0.420333,1.09273 0.737931,1.58417 0.312689,0.46471 0.756769,0.80621 1.225724,1.09974 0.356518,0.23885 0.732737,0.4313 1.131911,0.58555 0.53018,0.2192 1.066208,0.42173 1.609305,0.60712 0.857189,0.26843 1.753303,0.29179 2.641594,0.23409 1.156895,-0.0979 2.27141,-0.41758 3.350036,-0.83214 0.348449,-0.16172 0.464273,-0.20937 0.79751,-0.38706 0.121484,-0.0648 0.480386,-0.26925 0.360516,-0.20153 -0.429919,0.24287 -0.851596,0.5011 -1.290669,0.72701 -0.125384,0.0645 0.233884,-0.15772 0.347223,-0.24161 0.124794,-0.0924 0.244597,-0.19127 0.366895,-0.2869 0.655754,-0.53837 1.265748,-1.12843 1.824101,-1.76673 0.333634,-0.39997 0.643387,-0.81969 0.952601,-1.23871 0.504084,-0.68646 0.827722,-0.7449 1.967582,-1.26827 0.07519,-0.0345 0.236884,0.43085 0.252656,0.47166 0.176011,0.52102 0.388805,1.02454 0.63097,1.51813 0.313825,0.68784 0.72843,1.31466 1.189659,1.91026 0.303639,0.40353 0.676442,0.74337 1.068999,1.05737 0.375325,0.25943 0.80718,0.39492 1.238379,0.5264 0.748213,0.24153 1.527818,0.36112 2.305291,0.46169 1.609413,0.21616 3.224258,0.0919 4.830882,-0.0713 1.457023,-0.18848 2.90015,-0.47032 4.327194,-0.81714 0.378497,-0.11721 0.755258,-0.24484 1.118118,-0.40502 0.609754,-0.26916 1.904252,-1.03493 -0.695883,0.4469 0.549762,-0.33691 1.093311,-0.68427 1.629146,-1.04301 0.357642,-0.23888 0.686821,-0.5123 1.009941,-0.79481 0.295907,-0.27745 0.576651,-0.57047 0.858382,-0.86215 0.580652,-0.57393 1.104022,-0.74322 2.001293,-1.23027 0.03038,-0.0165 0.07058,-0.004 0.103478,0.007 0.08077,0.0261 0.140716,0.10298 0.196339,0.15897 0.350727,0.48231 0.710102,0.95335 1.112203,1.39443 0.562396,0.57376 1.161058,1.10868 1.818375,1.57086 0.500026,0.35526 1.049827,0.63321 1.60341,0.89407 0.656992,0.32893 1.348068,0.55478 2.061326,0.72322 0.872244,0.18287 1.762535,0.18362 2.64863,0.16042 1.21225,-0.0169 2.353228,-0.40321 3.473059,-0.82798 1.127852,-0.4672 2.215001,-1.02967 3.2767,-1.63081 1.095108,-0.63482 -0.328062,0.19134 -0.905642,0.51363 -0.103963,0.058 0.203433,-0.12375 0.304421,-0.18679 0.248542,-0.15516 0.493821,-0.31556 0.738349,-0.47693 0.364379,-0.23544 0.726824,-0.47554 1.074277,-0.73552 0.245478,-0.18973 0.479616,-0.39324 0.720141,-0.58903 0.612291,-0.52229 0.276775,-0.24642 1.883645,-1.13214 0.161597,-0.0891 0.349412,0.32804 0.390808,0.40657 0.299657,0.55566 0.600173,1.11042 0.923679,1.65261 0.432546,0.65356 0.905489,1.27577 1.434153,1.85424 0.294214,0.32761 0.647004,0.57187 1.008727,0.81453 0.349152,0.21617 0.723106,0.3761 1.108506,0.51812 0.62783,0.26228 1.28845,0.38371 1.96088,0.45793 0.82699,0.11377 1.61117,0.0136 2.41607,-0.17778 1.24042,-0.40017 2.45987,-0.86232 3.67272,-1.33869 1.23267,-0.4535 2.45785,-0.93014 3.63313,-1.51842 0.50811,-0.2448 0.28294,-0.12543 0.74149,-0.38568 0.0958,-0.0544 0.38298,-0.21823 0.28725,-0.16365 -2.57177,1.46624 -1.53558,0.89858 -0.97,0.50113 0.35634,-0.26548 0.72619,-0.51178 1.09144,-0.76455 0.17538,-0.13295 0.34235,-0.27666 0.5102,-0.41891 0,0 1.83039,-0.74267 1.83039,-0.74267 v 0 c -0.16857,0.14861 -0.34559,0.28683 -0.51034,0.43965 -0.36325,0.26236 -0.74566,0.49695 -1.10204,0.76896 -1.06186,0.75197 -2.20304,1.39008 -3.37244,1.9586 -1.17295,0.55918 -2.38597,1.02358 -3.60359,1.47561 -1.23404,0.48377 -2.47147,0.96842 -3.74015,1.35419 -0.81451,0.17243 -1.63223,0.25199 -2.46221,0.13096 -0.68706,-0.0845 -1.360404,-0.22602 -2.005471,-0.48414 -0.399026,-0.1509 -0.7904,-0.31286 -1.149337,-0.54676 -0.370888,-0.25133 -0.706223,-0.53675 -1.00434,-0.87381 -0.526677,-0.5954 -1.001503,-1.23094 -1.447675,-1.88869 -0.330671,-0.54028 -0.636064,-1.09486 -0.959866,-1.63922 -0.01638,-0.0272 -0.08726,-0.17164 -0.143669,-0.19699 -0.0073,-0.003 -0.09599,0.064 -0.08172,0.0557 1.580475,-0.92073 2.101342,-1.31235 1.492239,-0.86126 -0.228129,0.21297 -0.481759,0.4008 -0.723622,0.59858 -0.332028,0.28835 -0.717889,0.51502 -1.082929,0.75836 -1.111573,0.74748 -2.280087,1.40395 -3.445404,2.06356 -1.062358,0.58385 -2.143059,1.14006 -3.270237,1.58928 -1.140608,0.42287 -2.304881,0.7859 -3.534759,0.79516 -0.903124,0.0204 -1.811549,0.0135 -2.697467,-0.18814 -0.72196,-0.18312 -1.422436,-0.42153 -2.093107,-0.74905 -0.561454,-0.26716 -1.118444,-0.55378 -1.618668,-0.92608 -0.656302,-0.48184 -1.249879,-1.0378 -1.824747,-1.61353 -0.400071,-0.43274 -0.771382,-0.88719 -1.148659,-1.33886 -0.06814,-0.035 -0.04697,-0.0451 -0.102608,-0.0159 -0.02178,0.0114 -0.0852,0.0492 -0.06398,0.0368 2.964299,-1.739 1.879518,-1.21033 1.37187,-0.76395 -0.300379,0.27719 -0.570016,0.58706 -0.861383,0.87368 -0.32535,0.29287 -0.65251,0.57829 -1.014939,0.82572 -0.541687,0.36043 -1.086252,0.71536 -1.639091,1.05821 -1.223981,0.70612 -2.369164,1.48062 -3.750323,1.81336 -1.413283,0.3147 -2.839765,0.5714 -4.277085,0.74915 -1.633862,0.16068 -3.274863,0.28325 -4.912097,0.0786 -0.799374,-0.0955 -1.599376,-0.21168 -2.368678,-0.45798 -0.453782,-0.13786 -0.902613,-0.2976 -1.286674,-0.58507 -0.399542,-0.32761 -0.767797,-0.68936 -1.07169,-1.10975 -0.462526,-0.6099 -0.8758,-1.25134 -1.210926,-1.94135 -0.247801,-0.49456 -0.475761,-0.99597 -0.664919,-1.5159 -0.03494,-0.0822 -0.06187,-0.16861 -0.107405,-0.24543 -0.0067,-0.0113 -0.0011,0.0445 0.01035,0.038 0.547566,-0.31041 1.078468,-0.64946 1.623541,-0.96422 0.09069,-0.0524 -0.397375,0.29082 -0.220093,0.22418 -0.306996,0.43295 -0.642557,0.84741 -0.970315,1.26451 -0.556781,0.65408 -1.175787,1.25013 -1.829649,1.80693 -1.158311,0.95782 -2.496362,1.68383 -3.869777,2.28514 -1.087403,0.39613 -2.212991,0.68538 -3.370621,0.7761 -0.9171,0.0481 -1.842676,0.0244 -2.723413,-0.26713 -0.548368,-0.18576 -1.089972,-0.38947 -1.627074,-0.60534 -0.409208,-0.16034 -0.791044,-0.3686 -1.153232,-0.61861 -0.481907,-0.31858 -0.933779,-0.69282 -1.256906,-1.17807 -0.325014,-0.50358 -0.579652,-1.04199 -0.788443,-1.60387 0,0 1.730346,-0.96135 1.730346,-0.96135 z"
       inkscape:connector-curvature="0" />
    <path
       style="display:inline;fill:#000080;stroke:#000080;stroke-width:0.26458332"
       id="path4553-3"
       d="m 38.107309,118.04155 c 0.164451,0.56304 0.420333,1.09273 0.737931,1.58417 0.312689,0.46471 0.756769,0.80621 1.225724,1.09974 0.356518,0.23885 0.732737,0.4313 1.131911,0.58555 0.53018,0.2192 1.066208,0.42173 1.609305,0.60712 0.857189,0.26843 1.753303,0.29179 2.641594,0.2341 1.156894,-0.0979 2.271409,-0.41759 3.350035,-0.83215 0.348449,-0.16172 0.464273,-0.20937 0.79751,-0.38706 0.121484,-0.0648 0.480386,-0.26925 0.360516,-0.20153 -0.429919,0.24287 -0.851596,0.5011 -1.290669,0.72701 -0.125384,0.0645 0.233884,-0.15772 0.347223,-0.24161 0.124794,-0.0924 0.244597,-0.19127 0.366895,-0.2869 0.655754,-0.53837 1.265748,-1.12843 1.824101,-1.76673 0.333634,-0.39997 0.643387,-0.81969 0.952601,-1.23871 0.504084,-0.68646 0.827722,-0.7449 1.967582,-1.26827 0.07519,-0.0345 0.236884,0.43085 0.252656,0.47166 0.176011,0.52102 0.388805,1.02454 0.63097,1.51813 0.313825,0.68784 0.72843,1.31466 1.189659,1.91026 0.303639,0.40353 0.676442,0.74337 1.068999,1.05738 0.375325,0.25942 0.80718,0.39492 1.238379,0.52639 0.748213,0.24153 1.527818,0.36113 2.305291,0.46169 1.609413,0.21616 3.224258,0.0919 4.830882,-0.0713 1.457023,-0.18848 2.90015,-0.47032 4.327194,-0.81713 0.378497,-0.11722 0.755258,-0.24485 1.118118,-0.40503 0.609754,-0.26916 1.904252,-1.03493 -0.695883,0.4469 0.549762,-0.33691 1.093311,-0.68427 1.629146,-1.04301 0.357642,-0.23888 0.686821,-0.5123 1.009941,-0.79481 0.295907,-0.27745 0.576651,-0.57047 0.858382,-0.86215 0.580652,-0.57393 1.104022,-0.74322 2.001293,-1.23027 0.03038,-0.0165 0.07058,-0.004 0.103478,0.007 0.08077,0.0261 0.140716,0.10298 0.196339,0.15897 0.350727,0.48231 0.710102,0.95335 1.112203,1.39443 0.562396,0.57376 1.161058,1.10868 1.818375,1.57086 0.500026,0.35526 1.049827,0.63321 1.60341,0.89407 0.656992,0.32893 1.348068,0.55478 2.061326,0.72322 0.872244,0.18287 1.762535,0.18362 2.64863,0.16042 1.21225,-0.0169 2.353228,-0.40321 3.473059,-0.82798 1.127852,-0.4672 2.215001,-1.02967 3.2767,-1.6308 1.095108,-0.63483 -0.328062,0.19133 -0.905642,0.51362 -0.103963,0.058 0.203433,-0.12375 0.304421,-0.18679 0.248542,-0.15516 0.493821,-0.31556 0.738349,-0.47693 0.364379,-0.23544 0.726824,-0.47554 1.074277,-0.73552 0.245478,-0.18973 0.479616,-0.39324 0.720141,-0.58903 0.612291,-0.52229 0.276775,-0.24642 1.883645,-1.13214 0.161597,-0.0891 0.349412,0.32804 0.390808,0.40657 0.299657,0.55566 0.600173,1.11042 0.923679,1.65261 0.432546,0.65356 0.905489,1.27577 1.434153,1.85424 0.294214,0.32761 0.647004,0.57187 1.008727,0.81453 0.349147,0.21617 0.723107,0.3761 1.108507,0.51812 0.62783,0.26229 1.28845,0.38371 1.96088,0.45793 0.82699,0.11377 1.61117,0.0136 2.41606,-0.17778 1.24042,-0.40017 2.45988,-0.86232 3.67273,-1.33869 1.23268,-0.4535 2.45785,-0.93014 3.63313,-1.51842 0.50812,-0.2448 0.28294,-0.12543 0.74149,-0.38568 0.0958,-0.0544 0.38298,-0.21823 0.28725,-0.16364 -2.57176,1.46623 -1.53558,0.89857 -0.97,0.50112 0.35634,-0.26548 0.72619,-0.51178 1.09144,-0.76455 0.17538,-0.13295 0.34235,-0.27666 0.5102,-0.41891 0,0 1.8304,-0.74267 1.8304,-0.74267 v 0 c -0.16857,0.14861 -0.34559,0.28683 -0.51035,0.43965 -0.36325,0.26236 -0.74566,0.49695 -1.10204,0.76896 -1.06186,0.75197 -2.20304,1.39008 -3.37244,1.9586 -1.17295,0.55918 -2.38597,1.02358 -3.60359,1.47561 -1.23405,0.48377 -2.47148,0.96842 -3.74016,1.35419 -0.8145,0.17243 -1.63223,0.25199 -2.46221,0.13096 -0.68705,-0.0845 -1.360395,-0.22602 -2.005462,-0.48414 -0.399026,-0.1509 -0.7904,-0.31286 -1.149337,-0.54676 -0.370888,-0.25133 -0.706223,-0.53675 -1.00434,-0.87381 -0.526677,-0.5954 -1.001503,-1.23094 -1.447675,-1.88869 -0.330671,-0.54028 -0.636064,-1.09486 -0.959866,-1.63922 -0.01638,-0.0273 -0.08726,-0.17164 -0.143669,-0.19699 -0.0073,-0.003 -0.09599,0.064 -0.08172,0.0557 1.580475,-0.92073 2.101342,-1.31235 1.492239,-0.86126 -0.228129,0.21297 -0.481759,0.4008 -0.723622,0.59858 -0.332028,0.28835 -0.717889,0.51502 -1.082929,0.75836 -1.111573,0.74748 -2.280087,1.40395 -3.445404,2.06356 -1.062358,0.58385 -2.143059,1.14006 -3.270237,1.58928 -1.140608,0.42287 -2.304881,0.7859 -3.534759,0.79516 -0.903124,0.0204 -1.811549,0.0135 -2.697467,-0.18814 -0.72196,-0.18311 -1.422436,-0.42153 -2.093107,-0.74905 -0.561454,-0.26716 -1.118444,-0.55377 -1.618668,-0.92608 -0.656302,-0.48184 -1.249879,-1.0378 -1.824747,-1.61353 -0.400071,-0.43273 -0.771382,-0.88719 -1.148659,-1.33886 -0.06814,-0.035 -0.04697,-0.0451 -0.102608,-0.0159 -0.02178,0.0114 -0.0852,0.0492 -0.06398,0.0368 2.964299,-1.739 1.879518,-1.21033 1.37187,-0.76395 -0.300379,0.27719 -0.570016,0.58706 -0.861383,0.87369 -0.32535,0.29286 -0.65251,0.57828 -1.014939,0.82571 -0.541687,0.36043 -1.086252,0.71536 -1.639091,1.05821 -1.223981,0.70612 -2.369164,1.48062 -3.750323,1.81336 -1.413283,0.3147 -2.839765,0.5714 -4.277085,0.74915 -1.633862,0.16068 -3.274863,0.28325 -4.912097,0.0786 -0.799374,-0.0955 -1.599376,-0.21168 -2.368678,-0.45798 -0.453782,-0.13786 -0.902613,-0.2976 -1.286674,-0.58507 -0.399542,-0.32761 -0.767797,-0.68936 -1.07169,-1.10975 -0.462526,-0.6099 -0.8758,-1.25134 -1.210926,-1.94135 -0.247801,-0.49456 -0.475761,-0.99597 -0.664919,-1.5159 -0.03494,-0.0822 -0.06187,-0.16861 -0.107405,-0.24543 -0.0067,-0.0113 -0.0011,0.0445 0.01035,0.038 0.547566,-0.31041 1.078468,-0.64946 1.623541,-0.96421 0.09069,-0.0524 -0.397375,0.29081 -0.220093,0.22417 -0.306996,0.43295 -0.642557,0.84741 -0.970315,1.26451 -0.556781,0.65408 -1.175787,1.25013 -1.829649,1.80693 -1.158311,0.95782 -2.496362,1.68383 -3.869777,2.28514 -1.087403,0.39613 -2.212991,0.68538 -3.37062,0.7761 -0.917101,0.0481 -1.842677,0.0244 -2.723414,-0.26713 -0.548368,-0.18576 -1.089972,-0.38947 -1.627074,-0.60534 -0.409207,-0.16034 -0.791043,-0.3686 -1.153231,-0.61861 -0.481907,-0.31858 -0.933779,-0.69282 -1.256906,-1.17807 -0.325014,-0.50358 -0.579652,-1.04199 -0.788443,-1.60387 0,0 1.730346,-0.96135 1.730346,-0.96135 z"
       inkscape:connector-curvature="0" />
  </g>
</svg>
